classDiagram
    class Developer {
        +int id
        +string first_name
        +string last_name
        +string title
        +string bio
        +string email
        +string phone
        +string profile_picture
    }

    class Project {
        +int id
        +string title
        +string description
        +string image
        +string github_link
        +string demo_link
    }

    class Technologies {
        +int id
        +string name
    }

    Developer "1" --> "*" Project : has
    Project "*" --> "1" Technologies : uses